{"title":"Naruto.Shippuuden.Ep-302.480p.10BiT[gWc].mkv","uid":8203909,"size":56918700,"categoryP":"video","categoryS":"tv_shows","magnet":"?xt=urn:btih:c963fa50b4c6123307f5fcb832018e0421aff410&amp;dn=Naruto.Shippuuden.Ep-302.480p.10BiT%5BgWc%5D.mkv&amp;tr=udp%3A%2F%2Ftracker.openbittorrent.com%3A80&amp;tr=udp%3A%2F%2Fopen.demonii.com%3A1337&amp;tr=udp%3A%2F%2Ftracker.coppersurfer.tk%3A6969&amp;tr=udp%3A%2F%2Fexodus.desync.com%3A6969","seeders":1,"leechers":0,"uploader":"canc232","files":1,"time":1362078004,"description":"\nEpisode Title : Terror-Steam Up\n\nScreens: &lt;a href=&quot;\nhttp://imageshack.us/a/img201/5192/76798899.jpg&quot; rel=&quot;nofollow&quot; target=&quot;_NEW&quot;&gt;\nhttp://imageshack.us/a/img201/5192/76798899.jpg&lt;/a&gt; &lt;a href=&quot;\nhttp://imageshack.us/a/img834/761/46661027.jpg&quot; rel=&quot;nofollow&quot; target=&quot;_NEW&quot;&gt;\nhttp://imageshack.us/a/img834/761/46661027.jpg&lt;/a&gt; &lt;a href=&quot;\nhttp://imageshack.us/a/img543/2718/11080772.jpg&quot; rel=&quot;nofollow&quot; target=&quot;_NEW&quot;&gt;\nhttp://imageshack.us/a/img543/2718/11080772.jpg&lt;/a&gt;\n\n\nMedia Info:\n\nFormat : Matroska \nFormat version : Version 4 / Version 2 \nFile size : 54.3 MiB \nDuration : 23mn 9s \nOverall bit rate mode : Variable \nOverall bit rate : 328 Kbps \nEncoded date : UTC 2013-02-28 17:46:21 \nWriting application : mkvmerge v6.0.0 ('Coming Up For Air') built on Jan 20 2013 \n\n09:52:00 \nWriting library : libebml v1.3.0 + libmatroska v1.4.0 \n\nVideo \nID : 1 \nFormat : AVC \nFormat/Info : Advanced Video Codec \nFormat profile : High &lt;a class=&quot;__cf_email__&quot; href=&quot;/cdn-cgi/l/email-protection&quot; data-cfemail=&quot;85b4b5c5c9b0abb4&quot;&gt;[email&amp;#160;protected]&lt;/a&gt;&lt;script cf-hash='f9e31' type=&quot;text/javascript&quot;&gt;\n/* &lt;![CDATA[ */!function(){try{var t=&quot;currentScript&quot;in document?document.currentScript:function(){for(var t=document.getElementsByTagName(&quot;script&quot;),e=t.length;e--;)if(t[e].getAttribute(&quot;cf-hash&quot;))return t[e]}();if(t&amp;&amp;t.previousSibling){var e,r,n,i,c=t.previousSibling,a=c.getAttribute(&quot;data-cfemail&quot;);if(a){for(e=&quot;&quot;,r=parseInt(a.substr(0,2),16),n=2;a.length-n;n+=2)i=parseInt(a.substr(n,2),16)^r,e+=String.fromCharCode(i);e=document.createTextNode(e),c.parentNode.replaceChild(e,c)}}}catch(u){}}();/* ]]&gt; */&lt;/script&gt; \nFormat settings, CABAC : Yes \nFormat settings, ReFrames : 4 frames \nCodec ID : V_MPEG4/ISO/AVC \nDuration : 23mn 9s \nBit rate : 280 Kbps \nWidth : 848 pixels \nHeight : 480 pixels \nDisplay aspect ratio : 16:9 \nFrame rate mode : Constant \nFrame rate : 23.976 fps \nColor space : YUV \nChroma subsampling : 4:2:0 \nBit depth : 10 bits \nScan type : Progressive \nBits/(Pixel*Frame) : 0.029 \nStream size : 45.3 MiB (83%) \nWriting library : x264 core\nDefault : Yes \nForced : No \n\nAudio \nID : 2 \nFormat : Vorbis \nFormat settings, Floor : 1 \nCodec ID : A_VORBIS \nDuration : 23mn 9s \nBit rate mode : Variable \nBit rate : 48.0 Kbps \nChannel(s) : 1 channel \nSampling rate : 32.0 KHz \nCompression mode : Lossy \nStream size : 7.95 MiB (15%) \nWriting library : Lavf52.94.0 \nLanguage : Japanese \nDefault : Yes \nForced : No \nWriting application : Lavf52.94.0 \n\nText \nID : 3 \nFormat : ASS \nCodec ID : S_TEXT/ASS \nCodec ID/Info : Advanced Sub Station Alpha \nCompression mode : Lossless \nLanguage : English \nDefault : Yes \nForced : No \n\n","torrent":{"xt":"urn:btih:c963fa50b4c6123307f5fcb832018e0421aff410","amp;dn":"Naruto.Shippuuden.Ep-302.480p.10BiT%5BgWc%5D.mkv","amp;tr":["udp%3A%2F%2Ftracker.openbittorrent.com%3A80","udp%3A%2F%2Fopen.demonii.com%3A1337","udp%3A%2F%2Ftracker.coppersurfer.tk%3A6969","udp%3A%2F%2Fexodus.desync.com%3A6969"],"infoHash":"c963fa50b4c6123307f5fcb832018e0421aff410","infoHashBuffer":{"type":"Buffer","data":[201,99,250,80,180,198,18,51,7,245,252,184,50,1,142,4,33,175,244,16]},"announce":[],"urlList":[]}}